<svg xmlns="http://www.w3.org/2000/svg" xmlns:xlink="http://www.w3.org/1999/xlink" viewBox="0,0,256,256" width="64px" height="64px" fill-rule="nonzero"><g fill="none" fill-rule="nonzero" stroke="none" stroke-width="1" stroke-linecap="butt" stroke-linejoin="miter" stroke-miterlimit="10" stroke-dasharray="" stroke-dashoffset="0" font-family="none" font-weight="none" font-size="none" text-anchor="none" style="mix-blend-mode: normal"><g transform="scale(4,4)"><path d="M59.96,13.33l0.03,0.01l-0.31,0.65c-0.03,0.06 -0.06,0.11 -0.09,0.17l-2.8,5.84l-1.1,2.29c4.02,7.56 4.22,16.63 0.5,24.36c-3.79,7.9 -11.2,13.48 -19.84,14.93c-0.05,0.01 -0.11,0.02 -0.16,0.02c-0.31,0 -0.61,-0.15 -0.8,-0.4c-0.23,-0.3 -0.27,-0.7 -0.1,-1.03l0.49,-1.04c-4.57,0.47 -9.15,-0.26 -13.4,-2.11l-0.88,1.82l-2.03,4.23l-1.83,-0.79l1.63,-3.42c-4.67,-2.46 -8.46,-6.16 -11,-10.76c-0.16,-0.29 -0.17,-0.63 -0.03,-0.92l1.08,-2.24c-4.02,-7.56 -4.22,-16.63 -0.51,-24.36c3.71,-7.73 10.9,-13.24 19.3,-14.83l1.99,-4.18c0.23,-0.5 0.83,-0.71 1.33,-0.47c0.5,0.23 0.71,0.83 0.47,1.33l-2.1,4.42c-0.02,0.07 -0.04,0.15 -0.08,0.21l-0.49,1.03c4.56,-0.46 9.15,0.26 13.4,2.12l0.88,-1.82c0.11,-0.24 0.32,-0.42 0.57,-0.51c0.25,-0.09 0.52,-0.07 0.76,0.04c4.51,2.16 8.26,5.46 10.93,9.59l2.12,-4.43c0.02,-0.04 0.04,-0.07 0.06,-0.11l0.23,-0.49l0.02,0.01c0.29,-0.47 0.67,-0.79 1.32,-0.48c0.63,0.3 0.65,0.74 0.44,1.32z" fill="#2fd5f2"></path><path d="M55.69,22.29l1.1,-2.29c0.12,-0.28 0.1,-0.6 -0.05,-0.87c-0.3,-0.55 -0.63,-1.09 -0.97,-1.62c-2.67,-4.13 -6.42,-7.43 -10.93,-9.59c-0.24,-0.11 -0.51,-0.13 -0.76,-0.04c-0.25,0.09 -0.46,0.27 -0.57,0.51l-0.88,1.82c-4.25,-1.86 -8.84,-2.58 -13.4,-2.12l0.49,-1.03c0.04,-0.06 0.06,-0.14 0.08,-0.21c0.06,-0.28 0,-0.58 -0.18,-0.82c-0.22,-0.3 -0.59,-0.45 -0.96,-0.38c-0.18,0.03 -0.37,0.06 -0.55,0.1c-8.4,1.59 -15.59,7.1 -19.3,14.83c-3.71,7.73 -3.51,16.8 0.51,24.36l-1.08,2.24c-0.14,0.29 -0.13,0.63 0.03,0.92c2.54,4.6 6.33,8.3 11,10.76c0.3,0.15 0.6,0.3 0.9,0.45c0.24,0.11 0.51,0.13 0.76,0.04c0.25,-0.09 0.46,-0.27 0.57,-0.51l0.88,-1.82c4.25,1.85 8.83,2.58 13.4,2.11l-0.49,1.04c-0.17,0.33 -0.13,0.73 0.1,1.03c0.19,0.25 0.49,0.4 0.8,0.4c0.05,0 0.11,-0.01 0.16,-0.02c8.64,-1.45 16.05,-7.03 19.84,-14.93c3.72,-7.73 3.52,-16.8 -0.5,-24.36zM54.39,45.79c-3.22,6.71 -9.27,11.61 -16.42,13.41l0.43,-0.91c0.15,-0.33 0.1,-0.71 -0.12,-1c-0.19,-0.25 -0.48,-0.4 -0.79,-0.4c-0.06,0 -0.12,0.01 -0.17,0.02c-0.17,0.03 -0.33,0.06 -0.5,0.08c-4.61,0.7 -9.27,0.09 -13.58,-1.78c-0.31,-0.13 -0.61,-0.27 -0.91,-0.41c-0.24,-0.12 -0.51,-0.13 -0.76,-0.04c-0.25,0.08 -0.46,0.27 -0.57,0.51l-0.86,1.78c-4.14,-2.19 -7.53,-5.44 -9.87,-9.48l1.07,-2.23c0.02,-0.04 0.04,-0.08 0.05,-0.13c0.08,-0.25 0.06,-0.54 -0.07,-0.79c-0.33,-0.58 -0.63,-1.18 -0.9,-1.78c-3.07,-6.71 -3.02,-14.49 0.2,-21.2c3.22,-6.7 9.26,-11.6 16.4,-13.41c0.01,0 0.01,0 0.02,0l-0.42,0.87c-0.16,0.34 -0.12,0.74 0.1,1.04c0.23,0.3 0.61,0.44 0.97,0.38c0.17,-0.03 0.33,-0.06 0.5,-0.08c4.61,-0.7 9.27,-0.09 13.58,1.78c0.31,0.13 0.61,0.27 0.91,0.41c0.24,0.12 0.51,0.13 0.76,0.04c0.25,-0.09 0.46,-0.27 0.57,-0.51l0.86,-1.78c4.14,2.19 7.52,5.43 9.86,9.47c0.01,0 0.01,0.01 0.01,0.01l-1.07,2.23c-0.15,0.29 -0.13,0.63 0.02,0.92c0.33,0.58 0.63,1.18 0.9,1.78c3.07,6.71 3.02,14.49 -0.2,21.2z" fill="#ffffff"></path><path d="M31.9,2.43l-2.1,4.42l-1.61,3.39l-1.16,2.44c-0.17,0.36 -0.53,0.57 -0.91,0.57c-0.14,0 -0.29,-0.03 -0.43,-0.1c-0.49,-0.24 -0.71,-0.83 -0.47,-1.33l1.8,-3.79l1.09,-2.28l1.99,-4.18c0.23,-0.5 0.83,-0.71 1.33,-0.47c0.5,0.23 0.71,0.83 0.47,1.33z" fill="#ffffff"></path><path d="M21.796,22.262c-0.073,0 -0.146,-0.008 -0.221,-0.025c-0.455,-0.103 -0.779,-0.507 -0.779,-0.975c0,-0.228 0,-0.228 2.688,-5.827l0.007,-0.015v0c0.238,-0.497 0.834,-0.709 1.334,-0.469c0.498,0.239 0.708,0.836 0.469,1.334v0c0,0 -0.004,0.008 -0.012,0.024l-0.854,1.779c-0.004,0.009 -0.009,0.018 -0.013,0.026c-0.743,1.548 -1.692,3.526 -1.717,3.577c-0.168,0.355 -0.523,0.571 -0.902,0.571z" fill="#ffffff"></path><path d="M18.765,28.573c-0.145,0 -0.292,-0.031 -0.432,-0.099c-0.498,-0.239 -0.708,-0.836 -0.469,-1.334l1.299,-2.705c0.238,-0.497 0.834,-0.708 1.334,-0.469c0.498,0.239 0.708,0.836 0.469,1.334l-1.299,2.705c-0.172,0.359 -0.529,0.568 -0.902,0.568z" fill="#ffffff"></path><path d="M10.541,45.7c-0.145,0 -0.292,-0.031 -0.432,-0.099c-0.498,-0.239 -0.708,-0.836 -0.469,-1.334l6.06,-12.621c0.239,-0.497 0.835,-0.708 1.334,-0.468c0.498,0.239 0.708,0.836 0.469,1.334l-6.06,12.62c-0.172,0.359 -0.529,0.568 -0.902,0.568z" fill="#ffffff"></path><path d="M25.4,50.72l-2.16,4.49l-0.86,1.81l-0.88,1.82l-2.03,4.23l-0.13,0.27c-0.17,0.36 -0.53,0.57 -0.9,0.57c-0.15,0 -0.3,-0.03 -0.44,-0.1c-0.49,-0.24 -0.7,-0.83 -0.46,-1.33l0.1,-0.2l1.63,-3.42l0.87,-1.81l0.86,-1.78l2.59,-5.41c0.24,-0.5 0.84,-0.71 1.34,-0.47c0.5,0.24 0.71,0.84 0.47,1.33z" fill="#ffffff"></path><path d="M26.659,46.784c-0.146,0 -0.293,-0.031 -0.433,-0.099c-0.498,-0.239 -0.707,-0.837 -0.468,-1.335l1.299,-2.703c0.238,-0.498 0.834,-0.711 1.334,-0.469c0.498,0.239 0.708,0.836 0.469,1.334l-1.299,2.705c-0.172,0.358 -0.53,0.567 -0.902,0.567z" fill="#ffffff"></path><path d="M30.556,38.671c-0.145,0 -0.292,-0.031 -0.432,-0.099c-0.498,-0.239 -0.708,-0.836 -0.469,-1.334l1.284,-2.674c0.004,-0.011 0.009,-0.021 0.014,-0.03l4.762,-9.916c0.238,-0.497 0.834,-0.711 1.334,-0.469c0.498,0.239 0.708,0.836 0.469,1.334l-6.06,12.62c-0.172,0.359 -0.529,0.568 -0.902,0.568z" fill="#ffffff"></path><path d="M39.212,20.642c-0.145,0 -0.292,-0.032 -0.432,-0.099c-0.498,-0.239 -0.708,-0.836 -0.469,-1.334l3.896,-8.113c0.238,-0.497 0.834,-0.708 1.334,-0.468c0.498,0.239 0.708,0.836 0.469,1.334l-3.896,8.113c-0.172,0.358 -0.529,0.567 -0.902,0.567z" fill="#ffffff"></path><path d="M59.96,13.33l0.03,0.01l-0.31,0.65c-0.03,0.06 -0.06,0.11 -0.09,0.17l-2.8,5.84l-1.1,2.29l-0.32,0.67c-0.01,0.01 -0.01,0.02 -0.01,0.03l-0.77,1.6l-3.98,8.29c-0.18,0.36 -0.53,0.57 -0.91,0.57c-0.14,0 -0.29,-0.04 -0.43,-0.1c-0.5,-0.24 -0.71,-0.84 -0.47,-1.34l5.93,-12.36l1.04,-2.14l2.12,-4.43c0.02,-0.04 0.04,-0.07 0.06,-0.11l0.23,-0.49l0.02,0.01c0.29,-0.47 0.67,-0.79 1.32,-0.48c0.63,0.3 0.65,0.74 0.44,1.32z" fill="#ffffff"></path><path d="M44.51,44.263c-0.145,0 -0.292,-0.031 -0.432,-0.099c-0.498,-0.239 -0.708,-0.837 -0.469,-1.334l2.598,-5.409c0.238,-0.497 0.834,-0.71 1.334,-0.469c0.498,0.239 0.708,0.836 0.469,1.334l-2.598,5.409c-0.172,0.359 -0.529,0.568 -0.902,0.568z" fill="#ffffff"></path><path d="M41.047,51.475c-0.146,0 -0.293,-0.031 -0.433,-0.099c-0.498,-0.239 -0.707,-0.837 -0.468,-1.335l1.299,-2.704c0.238,-0.497 0.834,-0.71 1.334,-0.469c0.498,0.238 0.708,0.836 0.469,1.334l-1.299,2.706c-0.173,0.358 -0.53,0.567 -0.902,0.567z" fill="#ffffff"></path><path d="M36.719,60.489c-0.145,0 -0.292,-0.031 -0.432,-0.099c-0.498,-0.239 -0.708,-0.837 -0.469,-1.334l2.597,-5.409c0.238,-0.497 0.834,-0.71 1.334,-0.469c0.498,0.239 0.708,0.836 0.469,1.334l-2.597,5.409c-0.172,0.359 -0.529,0.568 -0.902,0.568z" fill="#ffffff"></path></g></g></svg>